<?xml version="1.0" encoding="UTF-8" standalone="no"?>
<!DOCTYPE svg PUBLIC "-//W3C//DTD SVG 1.1//EN" "http://www.w3.org/Graphics/SVG/1.1/DTD/svg11.dtd">
<svg width="100%" height="100%" viewBox="0 0 250 250" version="1.1" xmlns="http://www.w3.org/2000/svg" xmlns:xlink="http://www.w3.org/1999/xlink" xml:space="preserve" style="fill-rule:evenodd;clip-rule:evenodd;stroke-linejoin:round;stroke-miterlimit:2;">
    <g transform="matrix(1,0,0,1,167.215,112.498)">
        <path d="M0,-0.001C0,6.488 -4.952,11.806 -11.285,12.393C-11.676,12.431 -12.066,12.444 -12.458,12.444C-19.325,12.444 -24.902,6.88 -24.902,-0.001C-24.902,-6.868 -19.325,-12.445 -12.458,-12.445C-6.815,-12.445 -2.06,-8.705 -0.521,-3.57C-0.183,-2.438 0,-1.238 0,-0.001" style="fill:white;fill-rule:nonzero;"/>
    </g>
    <g transform="matrix(1,0,0,1,166.146,35.5488)">
        <path d="M0,201.733C-2.894,202.567 -5.825,203.283 -8.81,203.882C-10.96,204.313 -13.136,204.69 -15.325,205.004C-18.127,205.407 -20.954,205.72 -23.808,205.916C-25.176,206.006 -26.545,206.085 -27.926,206.124C-28.434,206.15 -28.942,206.163 -29.45,206.176L-29.75,206.176C-30.062,206.189 -30.389,206.189 -30.714,206.189C-30.871,206.202 -31.027,206.202 -31.184,206.202L-31.939,206.202C-33.959,206.202 -35.966,206.15 -37.959,206.045C-38.897,205.994 -39.823,205.942 -40.748,205.877C-42.546,205.759 -44.345,205.577 -46.117,205.355C-46.95,205.251 -47.772,205.147 -48.606,205.029C-49.427,204.912 -50.261,204.782 -51.082,204.651C-100.377,196.598 -139.288,157.688 -147.341,108.392C-147.472,107.571 -147.602,106.737 -147.719,105.916C-147.837,105.082 -147.94,104.261 -148.045,103.427C-148.266,101.655 -148.448,99.857 -148.566,98.058C-148.631,97.133 -148.684,96.208 -148.735,95.27C-148.84,93.276 -148.893,91.269 -148.893,89.25C-148.893,88.637 -148.893,88.024 -148.879,87.412C-148.866,86.878 -148.853,86.331 -148.84,85.796C-148.813,85.066 -148.788,84.35 -148.748,83.62C-148.696,82.565 -148.631,81.509 -148.553,80.466C-148.527,80.141 -148.501,79.815 -148.475,79.503C-148.41,78.642 -148.332,77.795 -148.24,76.935C-148.188,76.44 -148.123,75.945 -148.058,75.45C-148.045,75.306 -148.032,75.176 -148.006,75.033C-147.889,73.952 -147.732,72.87 -147.575,71.801C-147.589,71.75 -147.575,71.697 -147.55,71.658C-147.38,70.524 -147.185,69.39 -146.989,68.27C-146.859,67.54 -146.716,66.823 -146.572,66.093C-146.481,65.676 -146.403,65.272 -146.312,64.869C-146.208,64.4 -146.104,63.93 -145.999,63.462C-145.96,63.318 -145.935,63.174 -145.895,63.031C-145.777,62.51 -145.66,62.002 -145.53,61.494C-145.399,60.933 -145.257,60.373 -145.112,59.826C-144.97,59.265 -144.812,58.718 -144.67,58.158C-144.344,56.959 -143.992,55.76 -143.614,54.587L-143.067,52.867C-142.924,52.451 -142.78,52.033 -142.637,51.616C-142.454,51.069 -142.272,50.535 -142.076,50.001C-141.881,49.466 -141.686,48.931 -141.49,48.397C-133.516,27.144 -119.521,8.836 -101.59,-4.469C-104.965,1.186 -107.884,7.089 -110.333,13.188C-110.516,13.618 -110.685,14.047 -110.854,14.491C-116.444,28.917 -119.39,44.358 -119.39,60.087C-119.39,114.803 -84.467,162.94 -32.486,179.892L-28.316,181.248L-27.287,181.587L-27.274,181.587L-23.534,182.798L-19.703,184.049C-13.826,190.67 -7.22,196.598 0,201.733" style="fill:white;fill-rule:nonzero;"/>
    </g>
    <g transform="matrix(1,0,0,1,201.681,155.2)">
        <path d="M0,-125.501C-4.705,-124.159 -9.291,-122.53 -13.735,-120.641C-13.761,-120.628 -13.787,-120.614 -13.813,-120.602C-31.157,-113.187 -46.325,-101.706 -58.132,-87.347L-58.145,-87.347C-58.704,-86.656 -59.265,-85.966 -59.8,-85.262L-59.813,-85.262C-74.642,-66.393 -83.776,-42.833 -84.637,-17.175C-84.649,-17.136 -84.649,-17.109 -84.649,-17.07L-84.649,-16.914C-84.688,-15.664 -84.715,-14.413 -84.715,-13.161L-84.715,-13.07C-84.701,-1.134 -82.903,10.359 -79.58,21.201C-80.519,20.041 -81.443,18.868 -82.355,17.683L-82.355,17.67C-97.133,-1.89 -105.877,-26.244 -105.877,-52.646C-105.877,-62.08 -104.756,-71.254 -102.645,-80.036C-96.13,-107.18 -80.128,-130.636 -58.34,-146.702C-36.981,-145.022 -17.24,-137.594 -0.665,-125.971C-0.443,-125.813 -0.222,-125.657 0,-125.501" style="fill:white;fill-rule:nonzero;"/>
    </g>
    <g transform="matrix(1,0,0,1,136.501,8.2492)">
        <path d="M0,198.475C-1.994,197.823 -3.948,197.132 -5.891,196.376C-49.596,179.475 -80.584,137.06 -80.584,87.386C-80.584,58.158 -69.846,31.431 -52.085,10.934C-38.468,4.536 -23.43,0.691 -7.559,0.014C-7.507,0 -7.454,0 -7.402,0C-29.516,19.638 -44.07,46.574 -48.449,75.671C-49.4,81.795 -49.87,88.025 -49.87,94.305C-49.87,108.796 -47.355,123.104 -42.546,136.59C-37.738,150.091 -30.649,162.757 -21.501,173.951C-21.476,174.002 -21.437,174.054 -21.384,174.094C-21.345,174.133 -21.306,174.185 -21.254,174.25C-21.201,174.315 -21.123,174.407 -21.059,174.497C-20.98,174.576 -20.915,174.654 -20.837,174.746L-20.823,174.746C-20.681,174.928 -20.498,175.149 -20.289,175.384C-20.067,175.67 -19.834,175.944 -19.56,176.231C-19.286,176.57 -18.986,176.909 -18.687,177.247C-16.758,179.475 -13.931,182.629 -10.634,186.069L-10.634,186.082C-8.313,188.506 -5.76,191.073 -3.102,193.549L-3.063,193.588C-2.072,195.243 -1.068,196.871 0,198.475" style="fill:white;fill-rule:nonzero;"/>
    </g>
    <g transform="matrix(1,0,0,1,232.747,134.637)">
        <path d="M0,-12.536C0,20.172 -26.519,46.69 -59.226,46.69C-64.347,46.69 -69.298,46.038 -74.042,44.826C-55.042,34.961 -42.063,15.103 -42.063,-7.78C-42.063,-19.612 -45.53,-30.623 -51.511,-39.875C-42.924,-47.59 -33.268,-54.118 -22.778,-59.226C-8.913,-48.385 0,-31.496 0,-12.536" style="fill:white;fill-rule:nonzero;"/>
    </g>
</svg>
